<svg xmlns="http://www.w3.org/2000/svg" width="512" height="512" viewBox="0 0 512 512"><path d="M46 19c-.428 0-.859.033-1.292.097-1.365-6.968-7.507-12.097-14.708-12.097-8.271 0-15 6.729-15 15 0 .354.014.713.043 1.079-.344-.053-.692-.079-1.043-.079-3.86 0-7 3.14-7 7 0 3.859 3.14 7 7 7h32c4.963 0 9-4.038 9-9 0-4.962-4.037-9-9-9zm0 16h-32c-2.757 0-5-2.243-5-5 0-2.757 2.243-5 5-5 .634 0 1.257.121 1.853.359.336.134.72.077 1.002-.152.282-.229.417-.592.354-.949-.141-.804-.209-1.543-.209-2.258 0-7.168 5.832-13 13-13 6.557 0 12.1 4.906 12.894 11.413.035.289.193.547.435.709.241.162.54.211.821.134.621-.17 1.244-.256 1.85-.256 3.859 0 7 3.14 7 7 0 3.86-3.141 7-7 7zM48 43h-32c-.552 0-1 .447-1 1 0 .553.448 1 1 1h32c.553 0 1-.447 1-1 0-.553-.447-1-1-1zM48 49h-32c-.552 0-1 .447-1 1 0 .553.448 1 1 1h32c.553 0 1-.447 1-1 0-.553-.447-1-1-1zM48 55h-32c-.552 0-1 .447-1 1 0 .553.448 1 1 1h32c.553 0 1-.447 1-1 0-.553-.447-1-1-1z" transform="scale(8)"/></svg>