<svg height="32" viewBox="0 0 32 32" width="32" xmlns="http://www.w3.org/2000/svg"><path d="m22.0066312 20c.0148402-.164681.0224215-.3314552.0224215-.5 0-3.0375663-2.4624337-5.5-5.5-5.5-3.0375662 0-5.5 2.4624337-5.5 5.5 0 .1685448.0075813.335319.0224215.5h1.0050429c-.0181477-.1641669-.0274644-.3309955-.0274644-.5 0-2.4852815 2.0147185-4.5 4.5-4.5s4.5 2.0147185 4.5 4.5c0 .1690045-.0093166.3358331-.0274644.5zm-5.4775785-10c-.2761423 0-.5.2157526-.5.495389v2.009222c0 .2735958.2319336.495389.5.495389.2761424 0 .5-.2157526.5-.495389v-2.009222c0-.2735958-.2319336-.495389-.5-.495389zm6.7380578 2.7909949c-.1952621-.1952621-.5061135-.2009932-.7038463-.0032605l-1.4207345 1.4207346c-.1934614.1934614-.1862911.5142947.0032605.7038463.1952621.1952621.5061135.2009932.7038463.0032605l1.4207345-1.4207346c.1934615-.1934614.1862911-.5142947-.0032605-.7038463zm2.790995 6.7380578c0-.2761423-.2157526-.5-.495389-.5h-2.009222c-.2735958 0-.495389.2319336-.495389.5 0 .2761424.2157526.5.495389.5h2.009222c.2735958 0 .495389-.2319336.495389-.5zm-19.0581055 0c0 .2761424.2157526.5.49538898.5h2.00922204c.27359578 0 .49538898-.2319336.49538898-.5 0-.2761423-.2157526-.5-.49538898-.5h-2.00922204c-.27359578 0-.49538898.2319336-.49538898.5zm2.79099493-6.7380578c-.19526215.1952622-.20099327.5061135-.00326048.7038463l1.42073455 1.4207346c.1934614.1934614.5142947.186291.7038463-.0032605.1952621-.1952622.2009932-.5061135.0032605-.7038463l-1.4207346-1.4207346c-.1934614-.1934614-.5142947-.186291-.70384627.0032605zm-2.25373809 9.2090051c-.28067338 0-.50820411.2319336-.50820411.5 0 .2761424.22661515.5.50820411.5h17.98359176c.2806734 0 .5082041-.2319336.5082041-.5 0-.2761424-.2266151-.5-.5082041-.5z" fill-rule="evenodd"/></svg>