<svg height="32" viewBox="0 0 32 32" width="32" xmlns="http://www.w3.org/2000/svg"><path d="m30 14c0-2.209139-1.7953562-4-4-4-2.209139 0-4 1.7894101-4 4h1c0-1.6568542 1.3465171-3 3-3 1.6568542 0 3 1.3465171 3 3 0 1.6568542-1.3431234 3-3.0079301 3h-22.9920699v1h23.0015293c2.2082944 0 3.9984707-1.7953562 3.9984707-4zm-9-1c0-1.6568542-1.3465171-3-3-3-1.6568542 0-3 1.3420576-3 2.991394v.008606h1c0-1.1045695.8877296-2 2-2 1.1045695 0 2 .8877296 2 2 0 1.1045695-.8970601 2-2.0058587 2h-11.9941413v1h12.0005775c1.6565353 0 2.9994225-1.3465171 2.9994225-3zm4 8c0 1.1045695-.8877296 2-2 2-1.1045695 0-2-.8947051-2-1.9942627v-.0057373h1c0 .5522847.4438648 1 1 1 .5522847 0 1-.4438648 1-1 0-.5522847-.4489202-1-1.007484-1h-13.992516v-1h14.0059397c1.1012891 0 1.9940603.8877296 1.9940603 2z" fill-rule="evenodd"/></svg>